# xmcd CD database file
#
# Track frame offsets:
#	150
#	1847
#	14629
#	30546
#	48732
#	84483
#	105967
#	120642
#	131390
#	150701
#	176907
#
# Disc length: 2534 seconds
#
# Revision: 0
# Processed by: cddbd v1.5PL3 Copyright (c) Steve Scherf et al.
# Submitted via: CDex 1.51
#
DISCID=8109e40b
DTITLE=Sue Terry - Practice Like the Pros - Disc 1
DYEAR=2002
DGENRE=Jazz
TTITLE0=Introduction
TTITLE1=Carol Chaikin - Musicianship
TTITLE2=Sheila Cooper - Musicianship, Ear Training
TTITLE3=Laura Dreyer - Scales, Patterns
TTITLE4=Mark Friedman - Improvisation
TTITLE5=Samuel Furnace - Advanced Warmup, Intonation, Chord Study
TTITLE6=Dave Glasser - Articulation
TTITLE7=Mark Gross - Rhythm, Improvisation
TTITLE8=Cleave Guyton - Basic Warmup, Scale Study
TTITLE9=Jenny Hill - Tone, Intonation
TTITLE10=Martha Hyde - Chord Study
EXTD=YEAR: 2002
EXTT0=
EXTT1=
EXTT2=
EXTT3=
EXTT4=
EXTT5=
EXTT6=
EXTT7=
EXTT8=
EXTT9=
EXTT10=
PLAYORDER=
